<mxfile host="app.diagrams.net" modified="2024-01-22T06:37:46.122Z" agent="Mozilla/5.0 (Macintosh; Intel Mac OS X 10_15_7) AppleWebKit/537.36 (KHTML, like Gecko) Chrome/120.0.0.0 Safari/537.36" version="22.1.21" etag="JiWUCDE5FL9Wb6N6cHm-" type="github">
  <diagram name="Page-1" id="Vdw9yUlD-iCI_Ds75HVJ">
    <mxGraphModel>
      <root>
        <mxCell id="0" />
        <mxCell id="1" parent="0" />
      </root>
    </mxGraphModel>
  </diagram>
</mxfile>
